<svg width="0" height="0" class="hidden">
  <symbol fill="none" xmlns="http://www.w3.org/2000/svg" viewBox="0 0 34 29" id="Twitter">
    <path d="M33.6651 4.17846C32.4403 4.7068 31.1074 5.08705 29.7346 5.23514C31.1599 4.38834 32.2273 3.05052 32.7365 1.4727C31.399 2.26837 29.9337 2.82631 28.4057 3.12177C27.7671 2.43903 26.9947 1.89514 26.1366 1.52396C25.2786 1.15279 24.3533 0.962307 23.4185 0.964372C19.636 0.964372 16.594 4.03036 16.594 7.7928C16.594 8.32115 16.6581 8.84949 16.7621 9.35782C11.0985 9.06163 6.04719 6.35587 2.68901 2.21318C2.07711 3.25832 1.75646 4.44834 1.76041 5.65942C1.76041 8.02896 2.96519 10.1183 4.80238 11.3471C3.71969 11.3045 2.66236 11.0069 1.71638 10.4785V10.5626C1.71638 13.8808 4.0619 16.6305 7.18793 17.2629C6.60098 17.4154 5.99718 17.4934 5.39076 17.4951C4.94647 17.4951 4.5262 17.4511 4.10192 17.391C4.96649 20.0968 7.48412 22.0621 10.4821 22.1261C8.13654 23.9633 5.19864 25.044 2.00857 25.044C1.4362 25.044 0.907853 25.024 0.359497 24.9599C3.38546 26.9012 6.97579 28.0219 10.8423 28.0219C23.3944 28.0219 30.2629 17.6232 30.2629 8.59733C30.2629 8.30113 30.2629 8.00494 30.2429 7.70875C31.5717 6.73612 32.7365 5.53134 33.6651 4.17846Z" fill="#FF5722"></path>
  </symbol>
  <symbol fill="none" xmlns="http://www.w3.org/2000/svg" viewBox="0 0 33 33" id="Linkedin">
    <path d="M31.7182 0.48291H2.2591C1.55064 0.48291 0.978271 1.05528 0.978271 1.76374V31.2229C0.978271 31.9313 1.55064 32.5037 2.2591 32.5037H31.7182C32.4267 32.5037 32.9991 31.9313 32.9991 31.2229V1.76374C32.9991 1.05528 32.4267 0.48291 31.7182 0.48291ZM10.4764 27.7686H5.72535V12.4867H10.4764V27.7686ZM8.10289 10.3973C7.55825 10.3973 7.02583 10.2358 6.57297 9.93325C6.12011 9.63066 5.76715 9.20057 5.55873 8.69738C5.3503 8.1942 5.29577 7.6405 5.40202 7.10632C5.50828 6.57214 5.77055 6.08146 6.15567 5.69634C6.5408 5.31121 7.03148 5.04894 7.56566 4.94268C8.09984 4.83643 8.65353 4.89096 9.15672 5.09939C9.65991 5.30782 10.09 5.66078 10.3926 6.11363C10.6952 6.56649 10.8567 7.09891 10.8567 7.64356C10.8527 9.16454 9.61988 10.3973 8.10289 10.3973ZM28.264 27.7686H23.5169V20.3358C23.5169 18.5626 23.4849 16.2852 21.0473 16.2852C18.5777 16.2852 18.1974 18.2144 18.1974 20.2077V27.7686H13.4544V12.4867H18.0093V14.5761H18.0734C18.7058 13.3753 20.2548 12.1065 22.5683 12.1065C27.3794 12.1065 28.264 15.2725 28.264 19.3872V27.7686Z" fill="#FF5722"></path>
  </symbol>
  <symbol fill="none" xmlns="http://www.w3.org/2000/svg" viewBox="0 0 33 33" id="Facebook">
    <path d="M30.7304 0.48291H1.27131C0.56285 0.48291 -0.00952148 1.05528 -0.00952148 1.76374V31.2229C-0.00952148 31.9313 0.56285 32.5037 1.27131 32.5037H30.7304C31.4389 32.5037 32.0113 31.9313 32.0113 31.2229V1.76374C32.0113 1.05528 31.4389 0.48291 30.7304 0.48291ZM27.032 9.82897H24.4744C22.4691 9.82897 22.0808 10.7816 22.0808 12.1825V15.2685H26.8679L26.2435 20.0996H22.0808V32.5037H17.0896V20.1036H12.9149V15.2685H17.0896V11.7062C17.0896 7.57151 19.6152 5.31805 23.3056 5.31805C25.0748 5.31805 26.5917 5.45013 27.036 5.51017V9.82897H27.032Z" fill="#FF5722"></path>
  </symbol>
  <symbol fill="none" xmlns="http://www.w3.org/2000/svg" viewBox="0 0 20 20" id="Calling">
    <path fill-rule="evenodd" clip-rule="evenodd" d="M11.6164 0.660673C11.6625 0.253207 12.0269 -0.0464592 12.4305 0.00595759C16.4353 0.452984 19.5464 3.58217 19.9952 7.61431C20.0414 8.02177 19.7497 8.38968 19.3461 8.43418C19.3176 8.43715 19.2901 8.43913 19.2626 8.43913C18.8933 8.43913 18.5742 8.15924 18.5319 7.78046C18.1588 4.44161 15.5838 1.85044 12.2675 1.47956C11.8629 1.43407 11.5722 1.06814 11.6164 0.660673ZM1.83637 3.62202C1.33062 4.32223 1.36597 5.22024 1.90905 6.42187C2.07698 6.79472 1.91396 7.23384 1.54372 7.40395C1.17448 7.57405 0.736483 7.40889 0.568553 7.03604C-0.203336 5.32804 -0.189587 3.90191 0.611763 2.80017C0.780675 2.51336 2.64951 0.098231 4.39853 0.213944C4.90429 0.255481 5.36781 0.493829 5.80384 0.922065C6.26639 1.37601 8.21378 3.76048 8.36993 4.51805C8.53771 5.32931 8.17612 5.96286 7.912 6.42561L7.91131 6.42682C7.65107 6.88275 7.56072 7.07758 7.65009 7.32384C8.30806 8.94381 9.32349 10.2661 10.6581 11.2264C10.989 11.4658 11.0656 11.9276 10.829 12.2619C10.6856 12.4637 10.4597 12.5724 10.2299 12.5724C10.0816 12.5724 9.93138 12.5279 9.80175 12.434C8.23735 11.3075 7.05104 9.76864 6.27522 7.85691C5.93445 6.91242 6.33906 6.20429 6.63465 5.68705C6.8566 5.29936 6.97935 5.06794 6.9273 4.82069C6.78982 4.46366 5.35308 2.55193 4.77466 1.98425C4.59592 1.80722 4.42799 1.70337 4.30327 1.69348C3.64138 1.66282 2.16241 3.07808 1.83637 3.62202ZM13.1055 12.1869C13.6554 11.8388 14.4096 11.3651 15.3671 11.5639C16.1184 11.7201 18.4851 13.6813 18.9368 14.1481C19.3621 14.5852 19.5987 15.0521 19.639 15.5367C19.7028 17.3574 17.2792 19.2622 17.0022 19.4224C16.4729 19.8062 15.8532 20 15.1569 20C14.4636 20 13.6937 19.8081 12.8599 19.4185C9.65258 18.0754 4.80225 13.7268 2.07609 9.7362C1.84531 9.39994 1.92977 8.93808 2.26464 8.70467C2.59952 8.47523 3.05912 8.55731 3.28892 8.89654C5.83537 12.6221 10.4903 16.8194 13.4531 18.0606C14.6522 18.6203 15.5449 18.655 16.2077 18.1763C16.7243 17.8598 18.1954 16.3892 18.1689 15.6237C18.16 15.5337 18.0579 15.3646 17.8841 15.1846C17.3184 14.6011 15.4211 13.1552 15.0244 13.0048C14.7082 12.9405 14.386 13.1285 13.8901 13.442L13.6348 13.6022C13.2861 13.8128 12.8324 13.6981 12.6243 13.349C12.4141 12.9969 12.527 12.541 12.8757 12.3303L13.1055 12.1869ZM15.0616 7.8484C15.1303 8.20246 15.4387 8.44773 15.7834 8.44773C15.8305 8.44773 15.8787 8.44378 15.9258 8.43488C16.3255 8.35675 16.5857 7.96609 16.5081 7.56456C16.1094 5.50745 14.5323 3.91912 12.4896 3.51858C12.0958 3.45033 11.704 3.70352 11.6254 4.10505C11.5478 4.50658 11.8091 4.89724 12.2078 4.97537C13.6582 5.25921 14.7788 6.38666 15.0616 7.8484Z" fill="#FF5722"></path>
  </symbol>
  <symbol fill="none" xmlns="http://www.w3.org/2000/svg" viewBox="0 0 24 24" id="Location">
    <g id="Iconly/Regular/Broken/Location">
      <g id="Location">
        <path id="Location_2" fill-rule="evenodd" clip-rule="evenodd" d="M11.9999 2H12.0333C16.7197 2.01842 20.5183 5.84197 20.4999 10.5223V10.6153C20.4366 13.96 18.4258 16.7356 16.7504 18.4746C16.2736 18.9718 15.7661 19.4489 15.2427 19.8944C14.9292 20.1619 14.4586 20.1251 14.1908 19.812C13.923 19.498 13.9607 19.028 14.2742 18.7605C14.7589 18.3475 15.2304 17.9037 15.6739 17.4416C17.1649 15.8946 18.9527 13.4487 19.0071 10.5881C19.022 6.65842 15.8916 3.50574 12.0272 3.48996H11.9999C8.14862 3.48996 5.00768 6.61194 4.99276 10.4609C5.05861 12.3622 5.70138 14.1696 6.85256 15.6859C8.19604 17.4749 10.2341 19.3691 12.1712 20.6302C12.5171 20.8547 12.6146 21.316 12.3889 21.6615C12.2467 21.8807 12.007 22 11.7628 22C11.6232 22 11.4827 21.9614 11.3563 21.879C9.28224 20.5293 7.0993 18.5 5.66011 16.5839C4.32453 14.8238 3.57727 12.7235 3.5 10.5127C3.51844 5.78585 7.32848 2 11.9999 2ZM10.2552 10.6141C10.2552 11.5727 11.0367 12.354 11.9973 12.354C12.9579 12.354 13.7394 11.5727 13.7394 10.6141C13.7394 9.65474 12.9579 8.87337 11.9973 8.87337C11.5855 8.87337 11.2509 8.54012 11.2509 8.12883C11.2509 7.71665 11.5855 7.38341 11.9973 7.38341C13.7807 7.38341 15.2322 8.83215 15.2322 10.6141C15.2322 12.3952 13.7807 13.844 11.9973 13.844C10.2139 13.844 8.76241 12.3952 8.76241 10.6141C8.76241 10.202 9.09696 9.86872 9.50879 9.86872C9.92061 9.86872 10.2552 10.202 10.2552 10.6141Z" fill="#FF5722"></path>
      </g>
    </g>
  </symbol>
  <symbol fill="none" xmlns="http://www.w3.org/2000/svg" viewBox="0 0 24 24" id="Message">
    <g id="Iconly/Regular/Broken/Message">
      <g id="Message">
        <path id="Message_2" fill-rule="evenodd" clip-rule="evenodd" d="M22 10.3069C22 10.7006 21.6832 11.0198 21.2923 11.0198L21.2835 11.002C21.0958 11.002 20.9158 10.9269 20.7831 10.7932C20.6504 10.6595 20.5759 10.4782 20.5759 10.2891V8.84554C20.5519 6.41955 18.6055 4.45879 16.1973 4.43465H7.80274C5.39451 4.45879 3.44811 6.41955 3.42415 8.84554V15.1545C3.44811 17.5805 5.39451 19.5412 7.80274 19.5653H16.1973C18.6055 19.5412 20.5519 17.5805 20.5759 15.1545C20.6163 14.7891 20.923 14.5127 21.2879 14.5127C21.6529 14.5127 21.9595 14.7891 22 15.1545C21.9903 18.3788 19.398 20.9902 16.1973 21H7.80274C4.6 20.9951 2.00487 18.3808 2 15.1545V8.84554C2 5.61714 4.59798 3 7.80274 3H16.1973C19.398 3.00979 21.9903 5.6212 22 8.84554V10.3069ZM12.7386 11.8574L16.8518 8.54257H16.8607C17.167 8.29731 17.6119 8.34491 17.8602 8.6495C17.9785 8.798 18.0329 8.988 18.0113 9.17715C17.9897 9.36629 17.8939 9.53888 17.7452 9.65644L13.632 12.9802C12.5862 13.828 11.0954 13.828 10.0495 12.9802L5.92747 9.65644C5.6251 9.40629 5.57785 8.95805 5.82132 8.6495C5.93771 8.50163 6.10817 8.40703 6.29443 8.38693C6.4807 8.36682 6.66718 8.4229 6.81203 8.54257L10.9695 11.8574C11.4888 12.2679 12.2193 12.2679 12.7386 11.8574Z" fill="#FF5722"></path>
      </g>
    </g>
  </symbol>
</svg>